
<?xml version="1.0" encoding="utf-8"?>
<!-- Generator: Adobe Illustrator 24.1.0, SVG Export Plug-In . SVG Version: 6.00 Build 0)  -->
<svg version="1.1" id="Layer_1" xmlns="http://www.w3.org/2000/svg" xmlns:xlink="http://www.w3.org/1999/xlink" x="0px" y="0px"
	 viewBox="0 0 2721 608" style="enable-background:new 0 0 2721 608;" xml:space="preserve">
<style type="text/css">
	.st0{fill-rule:evenodd;clip-rule:evenodd;fill:#fff;}
	.st1{opacity:0.2494;}
	.st2{opacity:0.4904;fill:none;stroke:url(#SVGID_1_);enable-background:new    ;}
	.st3{fill:none;stroke:url(#SVGID_2_);}
	.st4{fill:none;stroke:url(#SVGID_3_);}
	.st5{fill:none;stroke:url(#SVGID_4_);}
	.st6{fill:none;stroke:url(#SVGID_5_);}
	.st7{opacity:0.3757;fill:none;stroke:url(#SVGID_6_);enable-background:new    ;}
	.st8{opacity:0.3658;fill:none;stroke:url(#SVGID_7_);enable-background:new    ;}
</style>
<g>
	<path class="st0" d="M2625.7,498c-137.6,110.1-508.6,122.6-637.3,99.6c-121.6-21.7-182.1-70.1-319.2-7.9s-176.4-86.6-369.5-51.6
		c-147.8,26.8-250.6,82.7-339.5,19.4s-448.1-29.1-588.3,0s-186.9,2.2-306-122.9C8.2,374.3-52.5,203.1,76.7,63.1
		s663.6,1.8,960.4-34.2s738.5-11.7,888.9,9.7c344.1,49,419.4,24.5,522.7,24.5c167.9,0,163.4,18.3,220.6,61.6
		C2726.5,167.9,2763.3,387.9,2625.7,498L2625.7,498z"/>
	<g transform="translate(294 380)" class="st1">
		
			<linearGradient id="SVGID_1_" gradientUnits="userSpaceOnUse" x1="526.6019" y1="461.7675" x2="527.6021" y2="461.7675" gradientTransform="matrix(2063 0 0 -86 -1086300 39894.0078)">
			<stop  offset="0" style="stop-color:#FFFFFF"/>
			<stop  offset="2.000000e-02" style="stop-color:#F2F5FE"/>
			<stop  offset="9.000000e-02" style="stop-color:#BAC9F9"/>
			<stop  offset="0.16" style="stop-color:#89A4F5"/>
			<stop  offset="0.24" style="stop-color:#6185F2"/>
			<stop  offset="0.31" style="stop-color:#426DEF"/>
			<stop  offset="0.37" style="stop-color:#2C5CED"/>
			<stop  offset="0.44" style="stop-color:#1F51EC"/>
			<stop  offset="0.5" style="stop-color:#1A4EEC"/>
			<stop  offset="0.56" style="stop-color:#1E51EC"/>
			<stop  offset="0.63" style="stop-color:#2B5BED"/>
			<stop  offset="0.7" style="stop-color:#406CEF"/>
			<stop  offset="0.76" style="stop-color:#5E83F2"/>
			<stop  offset="0.83" style="stop-color:#85A0F5"/>
			<stop  offset="0.91" style="stop-color:#B4C5F9"/>
			<stop  offset="0.98" style="stop-color:#EAEFFD"/>
			<stop  offset="1" style="stop-color:#FFFFFF"/>
		</linearGradient>
		<path class="st2" d="M2143,180.1c-187.3-10.6-313.6,60.3-442.4,37.4c-121.6-21.6-182.1-69.9-319.2-7.9s-176.4-86.4-369.5-51.5
			c-147.8,26.7-250.6,82.5-339.5,19.4S165.5,133.1,80,202"/>
		
			<linearGradient id="SVGID_2_" gradientUnits="userSpaceOnUse" x1="526.6044" y1="461.6687" x2="527.6046" y2="461.6687" gradientTransform="matrix(2076 0 0 -83 -1093164 38484.9961)">
			<stop  offset="0" style="stop-color:#FFFFFF"/>
			<stop  offset="2.000000e-02" style="stop-color:#F2F5FE"/>
			<stop  offset="9.000000e-02" style="stop-color:#BAC9F9"/>
			<stop  offset="0.16" style="stop-color:#89A4F5"/>
			<stop  offset="0.24" style="stop-color:#6185F2"/>
			<stop  offset="0.31" style="stop-color:#426DEF"/>
			<stop  offset="0.37" style="stop-color:#2C5CED"/>
			<stop  offset="0.44" style="stop-color:#1F51EC"/>
			<stop  offset="0.5" style="stop-color:#1A4EEC"/>
			<stop  offset="0.56" style="stop-color:#1E51EC"/>
			<stop  offset="0.63" style="stop-color:#2B5BED"/>
			<stop  offset="0.7" style="stop-color:#406CEF"/>
			<stop  offset="0.76" style="stop-color:#5E83F2"/>
			<stop  offset="0.83" style="stop-color:#85A0F5"/>
			<stop  offset="0.91" style="stop-color:#B4C5F9"/>
			<stop  offset="0.98" style="stop-color:#EAEFFD"/>
			<stop  offset="1" style="stop-color:#FFFFFF"/>
		</linearGradient>
		<path class="st3" d="M67,188.9c63.4-23.1,292.4-82.6,440.5-58.1c71.3,11.8,132.7,15.4,165.1,29.2c26.9,11.5,53.5,17.8,81.5,22.4
			c72.3,12.3,157.9-17.5,264.5-47.2c158.3-44.1,203.9,89.4,318.6,70c15.7-2.7,31-7.1,45.8-13c102.6-40.7,152.5-19.3,229.1-7.8
			c27.3,4.1,56.8,11.6,90.8,17.6c127.6,22.5,260.2-24.4,440.1-35.3"/>
		
			<linearGradient id="SVGID_3_" gradientUnits="userSpaceOnUse" x1="526.607" y1="462.0521" x2="527.6071" y2="462.0521" gradientTransform="matrix(2089 0 0 -96 -1100029 44505)">
			<stop  offset="0" style="stop-color:#FFFFFF"/>
			<stop  offset="2.000000e-02" style="stop-color:#F2F5FE"/>
			<stop  offset="9.000000e-02" style="stop-color:#BAC9F9"/>
			<stop  offset="0.16" style="stop-color:#89A4F5"/>
			<stop  offset="0.24" style="stop-color:#6185F2"/>
			<stop  offset="0.31" style="stop-color:#426DEF"/>
			<stop  offset="0.37" style="stop-color:#2C5CED"/>
			<stop  offset="0.44" style="stop-color:#1F51EC"/>
			<stop  offset="0.5" style="stop-color:#1A4EEC"/>
			<stop  offset="0.56" style="stop-color:#1E51EC"/>
			<stop  offset="0.63" style="stop-color:#2B5BED"/>
			<stop  offset="0.7" style="stop-color:#406CEF"/>
			<stop  offset="0.76" style="stop-color:#5E83F2"/>
			<stop  offset="0.83" style="stop-color:#85A0F5"/>
			<stop  offset="0.91" style="stop-color:#B4C5F9"/>
			<stop  offset="0.98" style="stop-color:#EAEFFD"/>
			<stop  offset="1" style="stop-color:#FFFFFF"/>
		</linearGradient>
		<path class="st4" d="M53,176.5c68.3,1.1,312.1-94.2,450.2-55.9c70,19.4,131.2,14.8,168.5,22.3c28.3,5.7,56,9.5,84.2,16.8
			c73.3,18.9,161.4-5.9,268.4-47.1c146.5-56.5,187,99.2,313.1,75.2c15.6-3,31-7.1,46-12.4c106.6-36.7,146.7-6,229.4-2.3
			c27.1,1.2,56.9,8,91.2,14.1c126.4,22.3,265.4-0.8,437.9-33.4"/>
		
			<linearGradient id="SVGID_4_" gradientUnits="userSpaceOnUse" x1="526.6095" y1="462.3829" x2="527.6097" y2="462.3829" gradientTransform="matrix(2103 0 0 -111 -1107420 51454.9961)">
			<stop  offset="0" style="stop-color:#FFFFFF"/>
			<stop  offset="2.000000e-02" style="stop-color:#F2F5FE"/>
			<stop  offset="9.000000e-02" style="stop-color:#BAC9F9"/>
			<stop  offset="0.16" style="stop-color:#89A4F5"/>
			<stop  offset="0.24" style="stop-color:#6185F2"/>
			<stop  offset="0.31" style="stop-color:#426DEF"/>
			<stop  offset="0.37" style="stop-color:#2C5CED"/>
			<stop  offset="0.44" style="stop-color:#1F51EC"/>
			<stop  offset="0.5" style="stop-color:#1A4EEC"/>
			<stop  offset="0.56" style="stop-color:#1E51EC"/>
			<stop  offset="0.63" style="stop-color:#2B5BED"/>
			<stop  offset="0.7" style="stop-color:#406CEF"/>
			<stop  offset="0.76" style="stop-color:#5E83F2"/>
			<stop  offset="0.83" style="stop-color:#85A0F5"/>
			<stop  offset="0.91" style="stop-color:#B4C5F9"/>
			<stop  offset="0.98" style="stop-color:#EAEFFD"/>
			<stop  offset="1" style="stop-color:#FFFFFF"/>
		</linearGradient>
		<path class="st5" d="M40,163.8c73.2,25.1,331.9-103.6,460.2-53c68.7,27.1,129.9,10.2,172,15c29.4,3.4,58.6,1.2,86.9,10.9
			c74.3,25.3,165.1,6.7,272.4-46.4c135.1-66.8,170.3,107.7,307.8,79.4c15.8-3.2,31.1-7.1,46.4-11.5c110.7-31.9,140.9,7.9,229.9,3.3
			c26.9-1.4,57.2,4.3,91.6,10.3c125.3,21.8,270.6,22.8,435.9-31.1"/>
		
			<linearGradient id="SVGID_5_" gradientUnits="userSpaceOnUse" x1="526.6119" y1="462.6783" x2="527.6121" y2="462.6783" gradientTransform="matrix(2116.0002 0 0 -129 -1114285.125 59800)">
			<stop  offset="0" style="stop-color:#FFFFFF"/>
			<stop  offset="2.000000e-02" style="stop-color:#F2F5FE"/>
			<stop  offset="9.000000e-02" style="stop-color:#BAC9F9"/>
			<stop  offset="0.16" style="stop-color:#89A4F5"/>
			<stop  offset="0.24" style="stop-color:#6185F2"/>
			<stop  offset="0.31" style="stop-color:#426DEF"/>
			<stop  offset="0.37" style="stop-color:#2C5CED"/>
			<stop  offset="0.44" style="stop-color:#1F51EC"/>
			<stop  offset="0.5" style="stop-color:#1A4EEC"/>
			<stop  offset="0.56" style="stop-color:#1E51EC"/>
			<stop  offset="0.63" style="stop-color:#2B5BED"/>
			<stop  offset="0.7" style="stop-color:#406CEF"/>
			<stop  offset="0.76" style="stop-color:#5E83F2"/>
			<stop  offset="0.83" style="stop-color:#85A0F5"/>
			<stop  offset="0.91" style="stop-color:#B4C5F9"/>
			<stop  offset="0.98" style="stop-color:#EAEFFD"/>
			<stop  offset="1" style="stop-color:#FFFFFF"/>
		</linearGradient>
		<path class="st6" d="M26,151.4c78.1,49.3,351.3-113.1,470-50.4c67.2,35.5,128,15.1,175.4,7.9c30.9-4.6,61-7,89.6,5.1
			c75.2,32.1,169.1,20,276.2-46c124.2-76.5,153.5,117,302.4,84.2c16.4-3.6,31.8-7.2,46.6-10.7c114.8-27,135.2,22.6,230.2,8.9
			c26.7-3.8,57.4,0.7,91.9,6.7c124.2,21.5,275.7,46.4,433.6-29"/>
		
			<linearGradient id="SVGID_6_" gradientUnits="userSpaceOnUse" x1="526.6144" y1="462.9122" x2="527.6147" y2="462.9122" gradientTransform="matrix(2130 0 0 -148 -1121676 68609.9922)">
			<stop  offset="0" style="stop-color:#FFFFFF"/>
			<stop  offset="2.000000e-02" style="stop-color:#F2F5FE"/>
			<stop  offset="9.000000e-02" style="stop-color:#BAC9F9"/>
			<stop  offset="0.16" style="stop-color:#89A4F5"/>
			<stop  offset="0.24" style="stop-color:#6185F2"/>
			<stop  offset="0.31" style="stop-color:#426DEF"/>
			<stop  offset="0.37" style="stop-color:#2C5CED"/>
			<stop  offset="0.44" style="stop-color:#1F51EC"/>
			<stop  offset="0.5" style="stop-color:#1A4EEC"/>
			<stop  offset="0.56" style="stop-color:#1E51EC"/>
			<stop  offset="0.63" style="stop-color:#2B5BED"/>
			<stop  offset="0.7" style="stop-color:#406CEF"/>
			<stop  offset="0.76" style="stop-color:#5E83F2"/>
			<stop  offset="0.83" style="stop-color:#85A0F5"/>
			<stop  offset="0.91" style="stop-color:#B4C5F9"/>
			<stop  offset="0.98" style="stop-color:#EAEFFD"/>
			<stop  offset="1" style="stop-color:#FFFFFF"/>
		</linearGradient>
		<path class="st7" d="M13,138.6C96,211.9,383.3,17,493,90.9c65.4,44.1,126.7,16,178.9,0.8c32.4-9.4,63.6-15.3,92.3-0.7
			c76.1,38.7,173.9,34.1,280.2-45.5c114-85.3,136.8,126.4,297.1,88.8c17-3.9,32.5-7.2,46.9-9.8c119.1-21.7,129.7,37.7,230.7,14.5
			c26.5-6.1,57.6-2.9,92.4,3c123,21.1,281,69.9,431.6-26.9"/>
		
			<linearGradient id="SVGID_7_" gradientUnits="userSpaceOnUse" x1="526.6167" y1="463.1012" x2="527.6171" y2="463.1012" gradientTransform="matrix(2143 0 0 -168 -1128540 77884.9922)">
			<stop  offset="0" style="stop-color:#FFFFFF"/>
			<stop  offset="2.000000e-02" style="stop-color:#F2F5FE"/>
			<stop  offset="9.000000e-02" style="stop-color:#BAC9F9"/>
			<stop  offset="0.16" style="stop-color:#89A4F5"/>
			<stop  offset="0.24" style="stop-color:#6185F2"/>
			<stop  offset="0.31" style="stop-color:#426DEF"/>
			<stop  offset="0.37" style="stop-color:#2C5CED"/>
			<stop  offset="0.44" style="stop-color:#1F51EC"/>
			<stop  offset="0.5" style="stop-color:#1A4EEC"/>
			<stop  offset="0.56" style="stop-color:#1E51EC"/>
			<stop  offset="0.63" style="stop-color:#2B5BED"/>
			<stop  offset="0.7" style="stop-color:#406CEF"/>
			<stop  offset="0.76" style="stop-color:#5E83F2"/>
			<stop  offset="0.83" style="stop-color:#85A0F5"/>
			<stop  offset="0.91" style="stop-color:#B4C5F9"/>
			<stop  offset="0.98" style="stop-color:#EAEFFD"/>
			<stop  offset="1" style="stop-color:#FFFFFF"/>
		</linearGradient>
		<path class="st8" d="M0,126C87.8,223.5,388.5-4.2,489.7,80.8S689.9,22.6,767,67.9s179.4,48.9,284.1-45.1s119.9,135.7,291.6,93.6
			s159.5,48.3,278.3,11.1s337.8,126.8,522-25.5"/>
	</g>
</g>
</svg>
